# xmcd
#
# Track frame offsets:
#	150
#	13646
#	25958
#	38334
#	50029
#	62436
#	74898
#	87865
#	101599
#	114231
#	127881
#	141580
#	155390
#	169130
#	183463
#	196702
#
# Disc length: 2804 seconds
#
# Revision: 0
# Processed by: cddbd v1.5.2PL0 Copyright (c) Steve Scherf et al.
# Submitted via: audiograbber 1.83.01
#
DISCID=d50af210
DTITLE=Erroll Garner - The King Of Jazz Piano - 16 Hits
DYEAR=1900
DGENRE=Jazz
TTITLE0=Body And Soul
TTITLE1=Laura
TTITLE2=Red Sails In The Sunset
TTITLE3=I Can't Believe That You're In Love With Me
TTITLE4=Stardust
TTITLE5=More Than You Know
TTITLE6=All Of Me
TTITLE7=All The Things You Are
TTITLE8=On The Sunny Side Of The Street
TTITLE9=Penthouse Serenade
TTITLE10=I Only Have Eyes For You
TTITLE11=I Surrender Dear
TTITLE12=Confessin'
TTITLE13=September Song
TTITLE14=I'm In The Mood For Love
TTITLE15=Rosalie
EXTD=
EXTT0=
EXTT1=
EXTT2=
EXTT3=
EXTT4=
EXTT5=
EXTT6=
EXTT7=
EXTT8=
EXTT9=
EXTT10=
EXTT11=
EXTT12=
EXTT13=
EXTT14=
EXTT15=
PLAYORDER=
